# xmcd CD database file
#
# Track frame offsets:
#	150
#	8030
#	19207
#	28536
#	41190
#	55785
#	332550
#
# Disc length: 4440 seconds
#
# Revision: 0
# Processed by: cddbd v1.5.1PL2 Copyright (c) Steve Scherf et al.
# Submitted via: CDex 1.51
#
DISCID=51115607
DTITLE=SABOTEN - おくりもの
DYEAR=2004
DGENRE=Pop Punk
TTITLE0=N(ニュートラル)
TTITLE1=仮FLOWER
TTITLE2=モンスター
TTITLE3=おくりもの
TTITLE4=(No Title)
TTITLE5=fuckin' data
TTITLE6=fuckin' data
EXTD=YEAR: 2004
EXTT0=
EXTT1=
EXTT2=
EXTT3=
EXTT4=
EXTT5=
EXTT6=
PLAYORDER=
